<?xml version="1.0" encoding="UTF-8" standalone="no"?>
<!-- Created with Inkscape (http://www.inkscape.org/) -->

<svg
   width="135mm"
   height="135mm"
   viewBox="0 0 135 135"
   version="1.1"
   id="svg1424"
   xml:space="preserve"
   inkscape:version="1.2.2 (732a01da63, 2022-12-09)"
   sodipodi:docname="Logo.svg"
   inkscape:export-filename="..\Logo.png"
   inkscape:export-xdpi="96"
   inkscape:export-ydpi="96"
   xmlns:inkscape="http://www.inkscape.org/namespaces/inkscape"
   xmlns:sodipodi="http://sodipodi.sourceforge.net/DTD/sodipodi-0.dtd"
   xmlns:xlink="http://www.w3.org/1999/xlink"
   xmlns="http://www.w3.org/2000/svg"
   xmlns:svg="http://www.w3.org/2000/svg"><sodipodi:namedview
     id="namedview1426"
     pagecolor="#ffffff"
     bordercolor="#000000"
     borderopacity="0.25"
     inkscape:showpageshadow="2"
     inkscape:pageopacity="0.0"
     inkscape:pagecheckerboard="true"
     inkscape:deskcolor="#d1d1d1"
     inkscape:document-units="mm"
     showgrid="false"
     inkscape:zoom="1"
     inkscape:cx="108.5"
     inkscape:cy="271.5"
     inkscape:window-width="1535"
     inkscape:window-height="1034"
     inkscape:window-x="470"
     inkscape:window-y="244"
     inkscape:window-maximized="0"
     inkscape:current-layer="layer1"
     inkscape:lockguides="false" /><defs
     id="defs1421"><linearGradient
       inkscape:collect="always"
       id="linearGradient1190"><stop
         style="stop-color:#ffffff;stop-opacity:0.73124999;"
         offset="0"
         id="stop1186" /><stop
         style="stop-color:#ffffff;stop-opacity:0;"
         offset="1"
         id="stop1188" /></linearGradient><linearGradient
       id="linearGradient2441"
       inkscape:swatch="gradient"><stop
         style="stop-color:#00b7a0;stop-opacity:1;"
         offset="0"
         id="stop2437" /><stop
         style="stop-color:#00b7a0;stop-opacity:0;"
         offset="1"
         id="stop2439" /></linearGradient><radialGradient
       inkscape:collect="always"
       xlink:href="#linearGradient1190"
       id="radialGradient1192"
       cx="77.594139"
       cy="172.05603"
       fx="77.594139"
       fy="172.05603"
       r="2.9212356"
       gradientTransform="matrix(1,0,0,0.83098596,0,29.079885)"
       gradientUnits="userSpaceOnUse" /></defs><g
     inkscape:label="Layer 1"
     inkscape:groupmode="layer"
     id="layer1"><g
       id="g1658"
       transform="matrix(0.26367188,0,0,0.26367188,9.4482229,33.944848)"><path
         style="fill:#00a898;fill-opacity:1"
         d="m 434.96074,-26.501985 c -0.073,5.792 2.248,11.045 6.035,14.832 3.729,3.7290002 8.88,6.0370002 14.567,6.0370002 h 16.604 c 2.209,0 4,1.791 4,4 V 256.15402 c 0,2.209 -1.791,4 -4,4 h -16.071 c -11.365,0 -20.991,8.974 -21.135,20.338 -0.073,5.792 2.248,11.045 6.035,14.832 3.729,3.729 8.88,6.037 14.567,6.037 h 16.604 c 2.209,0 4,1.791 4,4 v 73.9 c 0,2.209 -1.791,4 -4,4 h -504 c -2.209,0 -4,-1.791 -4,-4 v -77.899 h 20.604 c 5.6869997,0 10.8379997,-2.308 14.56699971,-6.037 3.78699999,-3.787 6.10799999,-9.041 6.03499999,-14.832 -0.143,-11.364 -9.77,-20.338 -21.1349997,-20.338 h -16.071 c -2.209,0 -4,-1.791 -4,-4 V -1.6319848 c 0,-2.209 1.791,-4 4,-4 h 16.604 c 5.6869997,0 10.8379997,-2.308 14.56699971,-6.0370002 3.78699999,-3.787 6.10799999,-9.041 6.03499999,-14.832 -0.143,-11.364 -9.77,-20.338 -21.1349997,-20.338 h -16.071 c -2.209,0 -4,-1.791 -4,-4 v -73.899995 c 0,-2.209 1.791,-4 4,-4 h 504 c 2.209,0 4,1.791 4,4 v 73.898995 c 0,2.209 -1.791,4 -4,4 h -16.071 c -11.364,0 -20.991,8.975 -21.135,20.338 z"
         id="path1428" /><g
         id="g1438"
         transform="translate(-35.83326,-128.73898)">
	<circle
   style="fill:#caeefc"
   cx="42.240002"
   cy="39.661999"
   r="15.453"
   id="circle1430" />
	<circle
   style="fill:#caeefc"
   cx="469.76001"
   cy="39.661999"
   r="15.453"
   id="circle1432" />
	<circle
   style="fill:#caeefc"
   cx="42.240002"
   cy="473.37"
   r="15.453"
   id="circle1434" />
	<circle
   style="fill:#caeefc"
   cx="469.76001"
   cy="473.37"
   r="15.453"
   id="circle1436" />
</g><path
         style="fill:#fac838;fill-opacity:1"
         d="m 352.66574,-97.833985 h -264.998 c -2.209,0 -4,-1.791 -4,-3.999995 v -26.905 h 272.998 v 26.905 c 0,2.209995 -1.791,3.999995 -4,3.999995 z"
         id="path1440" /><path
         style="fill:#fea601;fill-opacity:1"
         d="m 352.66574,-97.833985 h -26.905 v -30.904995 h 30.905 v 26.905 c 0,2.209995 -1.791,3.999995 -4,3.999995 z"
         id="path1442" /><path
         style="fill:#fac838;fill-opacity:1"
         d="m 356.66574,383.26102 h -272.998 v -26.905 c 0,-2.209 1.791,-4 4,-4 h 264.998 c 2.209,0 4,1.791 4,4 z"
         id="path1444" /><path
         style="fill:#fea601;fill-opacity:1"
         d="m 356.66574,383.26102 h -30.905 v -30.905 h 26.905 c 2.209,0 4,1.791 4,4 z"
         id="path1446" /><g
         id="g1528"
         transform="translate(-35.83326,-128.73898)">
	<path
   style="fill:#cbdae0"
   d="m 110.745,98.671 c -4.142,0 -7.5,-3.358 -7.5,-7.5 V 70.567 c 0,-4.142 3.358,-7.5 7.5,-7.5 4.142,0 7.5,3.358 7.5,7.5 v 20.604 c 0,4.142 -3.358,7.5 -7.5,7.5 z"
   id="path1448" />
	<path
   style="fill:#cbdae0"
   d="m 143.023,98.671 c -4.142,0 -7.5,-3.358 -7.5,-7.5 V 70.567 c 0,-4.142 3.358,-7.5 7.5,-7.5 4.142,0 7.5,3.358 7.5,7.5 v 20.604 c 0,4.142 -3.357,7.5 -7.5,7.5 z"
   id="path1450" />
	<path
   style="fill:#cbdae0"
   d="m 175.302,98.671 c -4.142,0 -7.5,-3.358 -7.5,-7.5 V 70.567 c 0,-4.142 3.358,-7.5 7.5,-7.5 4.142,0 7.5,3.358 7.5,7.5 v 20.604 c 0,4.142 -3.358,7.5 -7.5,7.5 z"
   id="path1452" />
	<path
   style="fill:#cbdae0"
   d="m 207.582,98.671 c -4.142,0 -7.5,-3.358 -7.5,-7.5 V 70.567 c 0,-4.142 3.358,-7.5 7.5,-7.5 4.142,0 7.5,3.358 7.5,7.5 v 20.604 c 0,4.142 -3.358,7.5 -7.5,7.5 z"
   id="path1454" />
	<path
   style="fill:#cbdae0"
   d="m 239.86,98.671 c -4.142,0 -7.5,-3.358 -7.5,-7.5 V 70.567 c 0,-4.142 3.358,-7.5 7.5,-7.5 4.142,0 7.5,3.358 7.5,7.5 v 20.604 c 0,4.142 -3.358,7.5 -7.5,7.5 z"
   id="path1456" />
	<path
   style="fill:#cbdae0"
   d="m 272.14,98.671 c -4.142,0 -7.5,-3.358 -7.5,-7.5 V 70.567 c 0,-4.142 3.358,-7.5 7.5,-7.5 4.142,0 7.5,3.358 7.5,7.5 v 20.604 c 0,4.142 -3.358,7.5 -7.5,7.5 z"
   id="path1458" />
	<path
   style="fill:#cbdae0"
   d="m 304.418,98.671 c -4.142,0 -7.5,-3.358 -7.5,-7.5 V 70.567 c 0,-4.142 3.358,-7.5 7.5,-7.5 4.142,0 7.5,3.358 7.5,7.5 v 20.604 c 0,4.142 -3.357,7.5 -7.5,7.5 z"
   id="path1460" />
	<path
   style="fill:#cbdae0"
   d="m 336.698,98.671 c -4.142,0 -7.5,-3.358 -7.5,-7.5 V 70.567 c 0,-4.142 3.358,-7.5 7.5,-7.5 4.142,0 7.5,3.358 7.5,7.5 v 20.604 c 0,4.142 -3.358,7.5 -7.5,7.5 z"
   id="path1462" />
	<path
   style="fill:#cbdae0"
   d="m 368.977,98.671 c -4.142,0 -7.5,-3.358 -7.5,-7.5 V 70.567 c 0,-4.142 3.358,-7.5 7.5,-7.5 4.142,0 7.5,3.358 7.5,7.5 v 20.604 c 0,4.142 -3.358,7.5 -7.5,7.5 z"
   id="path1464" />
	<path
   style="fill:#cbdae0"
   d="m 401.255,98.671 c -4.142,0 -7.5,-3.358 -7.5,-7.5 V 70.567 c 0,-4.142 3.358,-7.5 7.5,-7.5 4.142,0 7.5,3.358 7.5,7.5 v 20.604 c 0,4.142 -3.358,7.5 -7.5,7.5 z"
   id="path1466" />
	<path
   style="fill:#cbdae0"
   d="m 110.745,448.933 c -4.142,0 -7.5,-3.358 -7.5,-7.5 v -20.604 c 0,-4.142 3.358,-7.5 7.5,-7.5 4.142,0 7.5,3.358 7.5,7.5 v 20.604 c 0,4.142 -3.358,7.5 -7.5,7.5 z"
   id="path1468" />
	<path
   style="fill:#cbdae0"
   d="m 143.023,448.933 c -4.142,0 -7.5,-3.358 -7.5,-7.5 v -20.604 c 0,-4.142 3.358,-7.5 7.5,-7.5 4.142,0 7.5,3.358 7.5,7.5 v 20.604 c 0,4.142 -3.357,7.5 -7.5,7.5 z"
   id="path1470" />
	<path
   style="fill:#cbdae0"
   d="m 175.302,448.933 c -4.142,0 -7.5,-3.358 -7.5,-7.5 v -20.604 c 0,-4.142 3.358,-7.5 7.5,-7.5 4.142,0 7.5,3.358 7.5,7.5 v 20.604 c 0,4.142 -3.358,7.5 -7.5,7.5 z"
   id="path1472" />
	<path
   style="fill:#cbdae0"
   d="m 207.582,448.933 c -4.142,0 -7.5,-3.358 -7.5,-7.5 v -20.604 c 0,-4.142 3.358,-7.5 7.5,-7.5 4.142,0 7.5,3.358 7.5,7.5 v 20.604 c 0,4.142 -3.358,7.5 -7.5,7.5 z"
   id="path1474" />
	<path
   style="fill:#cbdae0"
   d="m 239.86,448.933 c -4.142,0 -7.5,-3.358 -7.5,-7.5 v -20.604 c 0,-4.142 3.358,-7.5 7.5,-7.5 4.142,0 7.5,3.358 7.5,7.5 v 20.604 c 0,4.142 -3.358,7.5 -7.5,7.5 z"
   id="path1476" />
	<path
   style="fill:#cbdae0"
   d="m 272.14,448.933 c -4.142,0 -7.5,-3.358 -7.5,-7.5 v -20.604 c 0,-4.142 3.358,-7.5 7.5,-7.5 4.142,0 7.5,3.358 7.5,7.5 v 20.604 c 0,4.142 -3.358,7.5 -7.5,7.5 z"
   id="path1478" />
	<path
   style="fill:#cbdae0"
   d="m 304.418,448.933 c -4.142,0 -7.5,-3.358 -7.5,-7.5 v -20.604 c 0,-4.142 3.358,-7.5 7.5,-7.5 4.142,0 7.5,3.358 7.5,7.5 v 20.604 c 0,4.142 -3.357,7.5 -7.5,7.5 z"
   id="path1480" />
	<path
   style="fill:#cbdae0"
   d="m 336.698,448.933 c -4.142,0 -7.5,-3.358 -7.5,-7.5 v -20.604 c 0,-4.142 3.358,-7.5 7.5,-7.5 4.142,0 7.5,3.358 7.5,7.5 v 20.604 c 0,4.142 -3.358,7.5 -7.5,7.5 z"
   id="path1482" />
	<path
   style="fill:#cbdae0"
   d="m 368.977,448.933 c -4.142,0 -7.5,-3.358 -7.5,-7.5 v -20.604 c 0,-4.142 3.358,-7.5 7.5,-7.5 4.142,0 7.5,3.358 7.5,7.5 v 20.604 c 0,4.142 -3.358,7.5 -7.5,7.5 z"
   id="path1484" />
	<path
   style="fill:#cbdae0"
   d="m 401.255,448.933 c -4.142,0 -7.5,-3.358 -7.5,-7.5 v -20.604 c 0,-4.142 3.358,-7.5 7.5,-7.5 4.142,0 7.5,3.358 7.5,7.5 v 20.604 c 0,4.142 -3.358,7.5 -7.5,7.5 z"
   id="path1486" />
	<path
   style="fill:#cbdae0"
   d="M 91.171,118.245 H 70.567 c -4.142,0 -7.5,-3.358 -7.5,-7.5 0,-4.142 3.358,-7.5 7.5,-7.5 h 20.604 c 4.142,0 7.5,3.358 7.5,7.5 0,4.142 -3.358,7.5 -7.5,7.5 z"
   id="path1488" />
	<path
   style="fill:#cbdae0"
   d="M 91.171,150.523 H 70.567 c -4.142,0 -7.5,-3.358 -7.5,-7.5 0,-4.142 3.358,-7.5 7.5,-7.5 h 20.604 c 4.142,0 7.5,3.358 7.5,7.5 0,4.142 -3.358,7.5 -7.5,7.5 z"
   id="path1490" />
	<path
   style="fill:#cbdae0"
   d="M 91.171,182.802 H 70.567 c -4.142,0 -7.5,-3.358 -7.5,-7.5 0,-4.142 3.358,-7.5 7.5,-7.5 h 20.604 c 4.142,0 7.5,3.358 7.5,7.5 0,4.142 -3.358,7.5 -7.5,7.5 z"
   id="path1492" />
	<path
   style="fill:#cbdae0"
   d="M 91.171,215.082 H 70.567 c -4.142,0 -7.5,-3.358 -7.5,-7.5 0,-4.142 3.358,-7.5 7.5,-7.5 h 20.604 c 4.142,0 7.5,3.358 7.5,7.5 0,4.142 -3.358,7.5 -7.5,7.5 z"
   id="path1494" />
	<path
   style="fill:#cbdae0"
   d="M 91.171,247.36 H 70.567 c -4.142,0 -7.5,-3.358 -7.5,-7.5 0,-4.142 3.358,-7.5 7.5,-7.5 h 20.604 c 4.142,0 7.5,3.358 7.5,7.5 0,4.142 -3.358,7.5 -7.5,7.5 z"
   id="path1496" />
	<path
   style="fill:#cbdae0"
   d="M 91.171,279.64 H 70.567 c -4.142,0 -7.5,-3.358 -7.5,-7.5 0,-4.142 3.358,-7.5 7.5,-7.5 h 20.604 c 4.142,0 7.5,3.358 7.5,7.5 0,4.142 -3.358,7.5 -7.5,7.5 z"
   id="path1498" />
	<path
   style="fill:#cbdae0"
   d="M 91.171,311.918 H 70.567 c -4.142,0 -7.5,-3.358 -7.5,-7.5 0,-4.142 3.358,-7.5 7.5,-7.5 h 20.604 c 4.142,0 7.5,3.358 7.5,7.5 0,4.142 -3.358,7.5 -7.5,7.5 z"
   id="path1500" />
	<path
   style="fill:#cbdae0"
   d="M 91.171,344.198 H 70.567 c -4.142,0 -7.5,-3.358 -7.5,-7.5 0,-4.142 3.358,-7.5 7.5,-7.5 h 20.604 c 4.142,0 7.5,3.358 7.5,7.5 0,4.142 -3.358,7.5 -7.5,7.5 z"
   id="path1502" />
	<path
   style="fill:#cbdae0"
   d="M 91.171,376.477 H 70.567 c -4.142,0 -7.5,-3.358 -7.5,-7.5 0,-4.142 3.358,-7.5 7.5,-7.5 h 20.604 c 4.142,0 7.5,3.358 7.5,7.5 0,4.142 -3.358,7.5 -7.5,7.5 z"
   id="path1504" />
	<path
   style="fill:#cbdae0"
   d="M 91.171,408.755 H 70.567 c -4.142,0 -7.5,-3.358 -7.5,-7.5 0,-4.142 3.358,-7.5 7.5,-7.5 h 20.604 c 4.142,0 7.5,3.358 7.5,7.5 0,4.142 -3.358,7.5 -7.5,7.5 z"
   id="path1506" />
	<path
   style="fill:#cbdae0"
   d="m 441.433,118.245 h -20.604 c -4.142,0 -7.5,-3.358 -7.5,-7.5 0,-4.142 3.358,-7.5 7.5,-7.5 h 20.604 c 4.142,0 7.5,3.358 7.5,7.5 0,4.142 -3.358,7.5 -7.5,7.5 z"
   id="path1508" />
	<path
   style="fill:#cbdae0"
   d="m 441.433,150.523 h -20.604 c -4.142,0 -7.5,-3.358 -7.5,-7.5 0,-4.142 3.358,-7.5 7.5,-7.5 h 20.604 c 4.142,0 7.5,3.358 7.5,7.5 0,4.142 -3.358,7.5 -7.5,7.5 z"
   id="path1510" />
	<path
   style="fill:#cbdae0"
   d="m 441.433,182.802 h -20.604 c -4.142,0 -7.5,-3.358 -7.5,-7.5 0,-4.142 3.358,-7.5 7.5,-7.5 h 20.604 c 4.142,0 7.5,3.358 7.5,7.5 0,4.142 -3.358,7.5 -7.5,7.5 z"
   id="path1512" />
	<path
   style="fill:#cbdae0"
   d="m 441.433,215.082 h -20.604 c -4.142,0 -7.5,-3.358 -7.5,-7.5 0,-4.142 3.358,-7.5 7.5,-7.5 h 20.604 c 4.142,0 7.5,3.358 7.5,7.5 0,4.142 -3.358,7.5 -7.5,7.5 z"
   id="path1514" />
	<path
   style="fill:#cbdae0"
   d="m 441.433,247.36 h -20.604 c -4.142,0 -7.5,-3.358 -7.5,-7.5 0,-4.142 3.358,-7.5 7.5,-7.5 h 20.604 c 4.142,0 7.5,3.358 7.5,7.5 0,4.142 -3.358,7.5 -7.5,7.5 z"
   id="path1516" />
	<path
   style="fill:#cbdae0"
   d="m 441.433,279.64 h -20.604 c -4.142,0 -7.5,-3.358 -7.5,-7.5 0,-4.142 3.358,-7.5 7.5,-7.5 h 20.604 c 4.142,0 7.5,3.358 7.5,7.5 0,4.142 -3.358,7.5 -7.5,7.5 z"
   id="path1518" />
	<path
   style="fill:#cbdae0"
   d="m 441.433,311.918 h -20.604 c -4.142,0 -7.5,-3.358 -7.5,-7.5 0,-4.142 3.358,-7.5 7.5,-7.5 h 20.604 c 4.142,0 7.5,3.358 7.5,7.5 0,4.142 -3.358,7.5 -7.5,7.5 z"
   id="path1520" />
	<path
   style="fill:#cbdae0"
   d="m 441.433,344.198 h -20.604 c -4.142,0 -7.5,-3.358 -7.5,-7.5 0,-4.142 3.358,-7.5 7.5,-7.5 h 20.604 c 4.142,0 7.5,3.358 7.5,7.5 0,4.142 -3.358,7.5 -7.5,7.5 z"
   id="path1522" />
	<path
   style="fill:#cbdae0"
   d="m 441.433,376.477 h -20.604 c -4.142,0 -7.5,-3.358 -7.5,-7.5 0,-4.142 3.358,-7.5 7.5,-7.5 h 20.604 c 4.142,0 7.5,3.358 7.5,7.5 0,4.142 -3.358,7.5 -7.5,7.5 z"
   id="path1524" />
	<path
   style="fill:#cbdae0"
   d="m 441.433,408.755 h -20.604 c -4.142,0 -7.5,-3.358 -7.5,-7.5 0,-4.142 3.358,-7.5 7.5,-7.5 h 20.604 c 4.142,0 7.5,3.358 7.5,7.5 0,4.142 -3.358,7.5 -7.5,7.5 z"
   id="path1526" />
</g><path
         style="fill:#3d415c;fill-opacity:1"
         d="M 55.33774,288.09002 V -33.567985 c 0,-2.209 1.791,-4 4,-4 h 321.658 c 2.209,0 4,1.791 4,4 V 288.09002 c 0,2.209 -1.791,4 -4,4 h -321.658 c -2.209,0 -4,-1.791 -4,-4 z"
         id="path1530" /><path
         style="fill:#292c3d;fill-opacity:1"
         d="M 354.09074,292.09002 V -37.567985 h 26.905 c 2.209,0 4,1.791 4,4 V 288.09002 c 0,2.209 -1.791,4 -4,4 z"
         id="path1532" /><path
         style="fill:#cbdae0"
         d="m 350.09074,261.18502 h -259.848 c -2.209,0 -4,-1.791 -4,-4 V -2.6629848 c 0,-2.209 1.791,-4 4,-4 h 259.847 c 2.209,0 4,1.791 4,4 V 257.18402 c 10e-4,2.21 -1.79,4.001 -3.999,4.001 z"
         id="path1534" /><path
         style="fill:#5f5d6f;fill-opacity:1"
         d="m 102.20474,214.68002 v 27.89 c 0,2.209 1.791,4 4,4 h 30.461 c 3.649,0 5.393,-4.486 2.701,-6.95 l -30.461,-27.89 c -2.566,-2.35 -6.701,-0.529 -6.701,2.95 z"
         id="path1538" /><g
         id="g1546">
	
	
	
</g><g
         id="g1548">
</g><g
         id="g1550">
</g><g
         id="g1552">
</g><g
         id="g1554">
</g><g
         id="g1556">
</g><g
         id="g1558">
</g><g
         id="g1560">
</g><g
         id="g1562">
</g><g
         id="g1564">
</g><g
         id="g1566">
</g><g
         id="g1568">
</g><g
         id="g1570">
</g><g
         id="g1572">
</g><g
         id="g1574">
</g><g
         id="g1576">
</g><g
         style="fill:none"
         id="g2850"
         transform="matrix(16.583958,0,0,15.838937,90.448124,-4.1529869)"><path
           fill="#202020"
           d="m 13.338,12.033 c -0.1,-0.112 -0.146,-0.319 -0.197,-0.54 -0.05,-0.22 -0.107,-0.457 -0.288,-0.61 V 10.882 A 0.756,0.756 0 0 0 12.63,10.748 C 12.882,10.003 12.783,9.261 12.53,8.591 12.218,7.768 11.675,7.051 11.26,6.561 10.796,5.975 10.342,5.419 10.35,4.598 10.364,3.344 10.488,1.019 8.282,1.016 8.192,1.016 8.099,1.02 8.002,1.028 5.536,1.226 6.19,3.831 6.153,4.703 6.108,5.341 5.979,5.843 5.54,6.467 5.025,7.08 4.3,8.071 3.956,9.104 3.794,9.591 3.716,10.088 3.788,10.558 3.765,10.578 3.744,10.599 3.724,10.621 3.573,10.782 3.461,10.978 3.336,11.11 3.22,11.226 3.054,11.27 2.872,11.335 2.689,11.401 2.489,11.497 2.368,11.73 v 10e-4 A 0.702,0.702 0 0 0 2.291,12.07 c 0,0.108 0.016,0.217 0.032,0.322 0.034,0.22 0.068,0.427 0.023,0.567 -0.144,0.395 -0.163,0.667 -0.061,0.865 0.102,0.199 0.31,0.286 0.547,0.335 0.473,0.1 1.114,0.075 1.619,0.342 l 0.043,-0.082 -0.043,0.082 c 0.54,0.283 1.089,0.383 1.526,0.284 a 0.99,0.99 0 0 0 0.706,-0.552 c 0.342,-0.002 0.717,-0.146 1.318,-0.18 0.408,-0.032 0.918,0.145 1.503,0.113 a 0.806,0.806 0 0 0 0.068,0.183 l 0.001,10e-4 c 0.227,0.455 0.65,0.662 1.1,0.627 0.45,-0.036 0.928,-0.301 1.315,-0.762 l -0.07,-0.06 0.07,0.06 c 0.37,-0.448 0.982,-0.633 1.388,-0.878 0.203,-0.123 0.368,-0.276 0.38,-0.499 0.013,-0.222 -0.118,-0.471 -0.418,-0.805 z"
           id="path2820"
           style="fill:#242424;fill-opacity:1" /><path
           fill="#f8bf11"
           d="m 13.571,12.828 c -0.007,0.137 -0.107,0.24 -0.29,0.35 -0.368,0.222 -1.019,0.414 -1.434,0.918 -0.362,0.43 -0.802,0.665 -1.19,0.696 -0.387,0.03 -0.721,-0.13 -0.919,-0.526 V 14.264 C 9.615,14.031 9.666,13.664 9.769,13.277 9.872,12.89 10.02,12.492 10.04,12.169 v -0.001 c 0.02,-0.415 0.044,-0.776 0.114,-1.055 0.07,-0.28 0.179,-0.468 0.373,-0.575 a 0.876,0.876 0 0 1 0.027,-0.014 c 0.022,0.359 0.2,0.725 0.514,0.804 0.343,0.09 0.838,-0.204 1.047,-0.445 l 0.122,-0.004 c 0.184,-0.005 0.337,0.006 0.495,0.143 v 10e-4 c 0.121,0.102 0.179,0.296 0.229,0.512 0.05,0.217 0.09,0.453 0.239,0.621 0.287,0.32 0.38,0.534 0.371,0.672 z m -6.979,1.015 v 0.003 c -0.034,0.435 -0.28,0.672 -0.656,0.758 -0.377,0.086 -0.888,0 -1.398,-0.266 -0.565,-0.3 -1.237,-0.27 -1.667,-0.36 C 2.655,13.933 2.514,13.865 2.45,13.74 2.386,13.614 2.384,13.395 2.521,13.02 V 13.019 L 2.522,13.017 C 2.59,12.808 2.54,12.579 2.507,12.364 2.474,12.15 2.458,11.954 2.531,11.818 L 2.532,11.817 C 2.626,11.636 2.764,11.571 2.935,11.51 3.105,11.448 3.308,11.4 3.468,11.24 L 3.469,11.239 H 3.47 C 3.618,11.082 3.73,10.886 3.86,10.747 3.97,10.63 4.08,10.552 4.245,10.551 H 4.25 a 0.61,0.61 0 0 1 0.093,0.008 c 0.22,0.033 0.411,0.187 0.596,0.437 l 0.533,0.971 v 10e-4 c 0.142,0.296 0.441,0.622 0.695,0.954 0.254,0.333 0.45,0.666 0.425,0.921 z"
           id="path2822" /><path
           fill="#d6a312"
           d="M 9.25,4.788 C 9.207,4.704 9.12,4.624 8.97,4.563 8.66,4.43 8.526,4.421 8.353,4.309 8.073,4.128 7.84,4.065 7.647,4.065 A 0.834,0.834 0 0 0 7.375,4.112 c -0.236,0.08 -0.392,0.25 -0.49,0.342 -0.02,0.019 -0.044,0.035 -0.104,0.08 -0.06,0.043 -0.15,0.11 -0.28,0.208 -0.117,0.086 -0.154,0.2 -0.114,0.332 0.04,0.132 0.167,0.285 0.4,0.417 h 0.001 c 0.145,0.085 0.244,0.2 0.358,0.291 A 0.801,0.801 0 0 0 7.335,5.899 C 7.407,5.93 7.491,5.951 7.595,5.957 7.843,5.972 8.025,5.897 8.185,5.806 8.345,5.714 8.481,5.602 8.637,5.551 H 8.638 C 8.958,5.451 9.186,5.25 9.258,5.058 A 0.324,0.324 0 0 0 9.25,4.788 Z"
           id="path2824" /><path
           fill="#202020"
           d="M 8.438,5.26 C 8.183,5.393 7.886,5.554 7.569,5.554 7.253,5.554 7.003,5.408 6.824,5.265 6.734,5.195 6.661,5.123 6.606,5.072 6.51,4.997 6.522,4.891 6.561,4.894 6.627,4.902 6.637,4.989 6.678,5.028 6.734,5.08 6.804,5.148 6.889,5.215 7.059,5.35 7.286,5.481 7.569,5.481 7.853,5.481 8.183,5.315 8.385,5.201 8.5,5.137 8.645,5.022 8.764,4.935 8.854,4.868 8.851,4.788 8.926,4.797 9.001,4.806 8.946,4.886 8.841,4.977 8.736,5.069 8.571,5.191 8.438,5.26 Z"
           id="path2826" /><path
           fill="#ffffff"
           d="m 12.337,10.694 a 1.724,1.724 0 0 0 -0.104,0 h -0.01 c 0.088,-0.277 -0.106,-0.48 -0.621,-0.713 -0.534,-0.235 -0.96,-0.212 -1.032,0.265 -0.005,0.025 -0.009,0.05 -0.011,0.076 a 0.801,0.801 0 0 0 -0.12,0.054 c -0.252,0.137 -0.389,0.386 -0.465,0.692 -0.076,0.305 -0.098,0.674 -0.119,1.09 -0.013,0.208 -0.099,0.49 -0.186,0.79 -0.875,0.624 -2.09,0.894 -3.122,0.19 -0.07,-0.11 -0.15,-0.22 -0.233,-0.328 a 13.85,13.85 0 0 0 -0.16,-0.205 0.65,0.65 0 0 0 0.268,-0.05 0.34,0.34 0 0 0 0.186,-0.192 c 0.063,-0.17 0,-0.408 -0.202,-0.68 C 6.205,11.41 5.864,11.103 5.363,10.795 4.995,10.565 4.789,10.285 4.693,9.981 4.596,9.676 4.609,9.346 4.683,9.021 4.826,8.396 5.193,7.788 5.426,7.407 5.489,7.361 5.449,7.493 5.19,7.974 4.958,8.414 4.523,9.429 5.118,10.222 5.134,9.658 5.268,9.082 5.495,8.545 5.824,7.798 6.513,6.504 6.567,5.472 6.596,5.492 6.692,5.558 6.736,5.582 6.862,5.657 6.957,5.766 7.08,5.865 a 0.85,0.85 0 0 0 0.575,0.2 c 0.24,0 0.427,-0.079 0.582,-0.168 C 8.407,5.801 8.541,5.693 8.67,5.652 8.94,5.567 9.156,5.417 9.278,5.242 c 0.21,0.83 0.7,2.027 1.014,2.611 0.167,0.31 0.5,0.969 0.643,1.762 0.091,-0.002 0.191,0.01 0.299,0.038 C 11.609,8.68 10.915,7.631 10.598,7.339 10.47,7.215 10.463,7.159 10.528,7.162 c 0.343,0.304 0.795,0.917 0.96,1.608 0.075,0.315 0.09,0.646 0.01,0.973 0.04,0.017 0.08,0.034 0.12,0.054 0.603,0.293 0.826,0.548 0.719,0.897 z"
           id="path2828" /><path
           fill="#e6e6e6"
           d="M 8.04,8.062 C 7.484,8.064 6.941,8.313 6.482,8.778 6.022,9.242 5.668,9.9 5.464,10.666 l 0.061,0.038 v 0.004 c 0.47,0.298 0.805,0.598 1.012,0.878 0.219,0.296 0.316,0.584 0.223,0.834 a 0.513,0.513 0 0 1 -0.27,0.283 l -0.041,0.015 c 0.074,0.097 0.146,0.197 0.213,0.3 0.944,0.628 2.042,0.396 2.867,-0.172 0.08,-0.278 0.153,-0.536 0.163,-0.698 0.021,-0.415 0.042,-0.792 0.124,-1.12 0.082,-0.33 0.242,-0.63 0.544,-0.795 0.017,-0.01 0.034,-0.015 0.051,-0.023 a 0.756,0.756 0 0 1 0.022,-0.094 C 10.191,9.494 9.842,8.976 9.423,8.616 9.003,8.256 8.526,8.065 8.041,8.062 Z m 2.37,2.155 -0.002,0.005 V 10.22 l 0.001,-0.004 z"
           id="path2830" /><path
           fill="#ffffff"
           d="M 9.278,3.833 A 1.05,1.05 0 0 1 9.063,4.489 4.119,4.119 0 0 0 8.845,4.399 L 8.718,4.354 C 8.747,4.319 8.803,4.279 8.825,4.227 A 0.669,0.669 0 0 0 8.875,3.984 L 8.876,3.974 A 0.673,0.673 0 0 0 8.841,3.738 0.434,0.434 0 0 0 8.733,3.554 0.223,0.223 0 0 0 8.577,3.484 H 8.57 A 0.228,0.228 0 0 0 8.419,3.544 0.434,0.434 0 0 0 8.297,3.719 0.676,0.676 0 0 0 8.247,3.962 v 0.01 A 0.718,0.718 0 0 0 8.256,4.112 1.773,1.773 0 0 0 7.902,3.992 1.196,1.196 0 0 1 7.892,3.859 V 3.846 A 1.035,1.035 0 0 1 7.98,3.399 0.793,0.793 0 0 1 8.23,3.071 0.554,0.554 0 0 1 8.576,2.948 h 0.006 c 0.125,0 0.232,0.036 0.342,0.116 A 0.78,0.78 0 0 1 9.181,3.388 C 9.244,3.526 9.275,3.661 9.278,3.821 L 9.279,3.833 Z M 7.388,3.997 A 1.05,1.05 0 0 0 7.111,4.122 0.623,0.623 0 0 0 7.113,3.972 V 3.964 A 0.651,0.651 0 0 0 7.065,3.772 0.37,0.37 0 0 0 6.969,3.631 0.158,0.158 0 0 0 6.85,3.586 C 6.808,3.59 6.773,3.61 6.74,3.651 A 0.372,0.372 0 0 0 6.67,3.807 0.626,0.626 0 0 0 6.657,4.012 V 4.02 A 0.634,0.634 0 0 0 6.705,4.213 0.367,0.367 0 0 0 6.821,4.369 L 6.719,4.449 6.641,4.505 A 0.706,0.706 0 0 1 6.481,4.265 C 6.428,4.145 6.399,4.025 6.391,3.884 V 3.883 A 1.071,1.071 0 0 1 6.436,3.493 0.668,0.668 0 0 1 6.603,3.201 0.359,0.359 0 0 1 6.867,3.083 c 0.084,0 0.158,0.028 0.235,0.09 a 0.68,0.68 0 0 1 0.199,0.271 c 0.053,0.12 0.08,0.24 0.089,0.382 v 10e-4 c 0.003,0.06 0.003,0.115 -0.002,0.17 z"
           id="path2832" /><path
           fill="#202020"
           d="m 7.806,4.335 c 0.01,0.034 0.065,0.029 0.097,0.045 0.027,0.014 0.05,0.045 0.08,0.046 0.03,10e-4 0.076,-0.01 0.08,-0.04 C 8.068,4.348 8.011,4.323 7.975,4.309 7.928,4.29 7.868,4.281 7.824,4.306 7.814,4.311 7.803,4.324 7.806,4.336 Z m -0.322,0 C 7.474,4.369 7.419,4.364 7.388,4.38 7.36,4.394 7.338,4.425 7.307,4.426 7.277,4.427 7.231,4.416 7.227,4.386 7.222,4.348 7.279,4.323 7.315,4.309 7.362,4.29 7.423,4.281 7.467,4.306 c 0.01,0.005 0.02,0.018 0.017,0.03 z"
           id="path2834" /></g><g
         style="fill:none"
         id="g6503"
         transform="matrix(0.230657,0,0,0.230657,-35.77486,-128.44941)"><g
           id="g7651"
           transform="translate(1884.0007,1882.9574)"><rect
             width="327.71844"
             height="327.71844"
             fill="#512bd4"
             id="rect6482"
             x="-0.25319052"
             y="-1.2554134"
             style="stroke-width:0.71868" /><path
             d="m 58.997165,208.3896 c -2.313722,0 -4.280407,-0.77071 -5.900055,-2.31286 -1.619648,-1.58161 -2.429472,-3.4596 -2.429472,-5.63396 0,-2.21455 0.809824,-4.11191 2.429472,-5.69353 1.619648,-1.58161 3.586333,-2.37242 5.900055,-2.37242 2.352329,0 4.338318,0.79081 5.957966,2.37242 1.658184,1.58162 2.487312,3.47898 2.487312,5.69353 0,2.17436 -0.829128,4.05235 -2.487312,5.63396 -1.619648,1.54215 -3.605637,2.31286 -5.957966,2.31286 z"
             fill="#ffffff"
             id="path6484"
             style="stroke-width:0.717611" /><path
             d="m 151.49236,207.08499 h -15.0397 L 96.829769,144.5746 c -1.002503,-1.58161 -1.832062,-3.22279 -2.48724,-4.92281 h -0.347324 c 0.308573,1.81914 0.462859,5.71362 0.462859,11.68343 v 55.74977 h -13.30451 v -85.04768 h 16.022821 l 38.293165,61.0278 c 1.61965,2.53101 2.6609,4.2705 3.12376,5.21918 h 0.23107 c -0.38536,-2.2533 -0.5784,-6.06883 -0.5784,-11.44661 v -54.80037 h 13.24639 z"
             fill="#ffffff"
             id="path6486"
             style="stroke-width:0.717611" /><path
             d="M 216.27972,207.08499 H 169.71537 V 122.03731 H 214.429 v 11.98051 h -30.94626 v 24.07873 h 28.51715 v 11.92095 h -28.51715 v 25.14653 h 32.79698 z"
             fill="#ffffff"
             id="path6488"
             style="stroke-width:0.717611" /><path
             d="m 282.45638,134.01782 h -23.83186 v 73.06717 h -13.76737 v -73.06717 h -23.77374 v -11.98051 h 61.37297 z"
             fill="#ffffff"
             id="path6490"
             style="stroke-width:0.717611" /></g></g></g><g
       id="g7675"
       transform="matrix(0.11718863,0,0,0.11718819,50.967937,293.02419)">
</g><g
       id="g7677"
       transform="matrix(0.11718863,0,0,0.11718819,50.967937,293.02419)">
</g><g
       id="g7679"
       transform="matrix(0.11718863,0,0,0.11718819,50.967937,293.02419)">
</g><g
       id="g7681"
       transform="matrix(0.11718863,0,0,0.11718819,50.967937,293.02419)">
</g><g
       id="g7683"
       transform="matrix(0.11718863,0,0,0.11718819,50.967937,293.02419)">
</g><g
       id="g7685"
       transform="matrix(0.11718863,0,0,0.11718819,50.967937,293.02419)">
</g><g
       id="g7687"
       transform="matrix(0.11718863,0,0,0.11718819,50.967937,293.02419)">
</g><g
       id="g7689"
       transform="matrix(0.11718863,0,0,0.11718819,50.967937,293.02419)">
</g><g
       id="g7691"
       transform="matrix(0.11718863,0,0,0.11718819,50.967937,293.02419)">
</g><g
       id="g7693"
       transform="matrix(0.11718863,0,0,0.11718819,50.967937,293.02419)">
</g><g
       id="g7695"
       transform="matrix(0.11718863,0,0,0.11718819,50.967937,293.02419)">
</g><g
       id="g7697"
       transform="matrix(0.11718863,0,0,0.11718819,50.967937,293.02419)">
</g><g
       id="g7699"
       transform="matrix(0.11718863,0,0,0.11718819,50.967937,293.02419)">
</g><g
       id="g7701"
       transform="matrix(0.11718863,0,0,0.11718819,50.967937,293.02419)">
</g><g
       id="g7703"
       transform="matrix(0.11718863,0,0,0.11718819,50.967937,293.02419)">
</g><g
       id="g1011"
       transform="translate(-6.0588247,3.8944866)"><g
         id="g1184"
         transform="translate(-4.2333333,-129.77812)"><polygon
           style="fill:#5d6d7e"
           points="333.446,362.77 339.104,368.471 368.467,339.1 335.553,306.156 306.164,335.544 318.742,348.145 "
           id="polygon7653"
           transform="matrix(0.07812575,0,0,0.07812546,65.444931,159.52814)" /><path
           style="fill:#f15540;stroke-width:0.0781256"
           d="m 96.569763,186.0065 7.912027,7.91246 c 0.59501,0.59219 0.96462,1.41642 0.96322,2.3226 0,0.90797 -0.36782,1.73219 -0.96322,2.32657 -0.59321,0.59321 -1.4154,0.96001 -2.32346,0.96001 -0.90758,0 -1.729,-0.36719 -2.323998,-0.96282 l -7.912425,-7.91161 z"
           id="path7655" /><path
           style="fill:#ffa184;stroke-width:0.0781256"
           d="m 95.477721,187.0997 v 0 l 0.642428,-0.64422 7.913441,7.91349 c 0.50102,0.50023 0.77524,1.16461 0.77477,1.87259 0,0.71023 -0.27461,1.37657 -0.77477,1.87657 -0.09,0.0872 -0.20641,0.13141 -0.32219,0.13141 -0.11704,0 -0.2336,-0.0442 -0.32259,-0.13321 -0.17703,-0.17844 -0.17703,-0.46477 0,-0.64156 0.32938,-0.32844 0.51063,-0.76845 0.51063,-1.23423 3.6e-4,-0.46399 -0.18023,-0.9 -0.50922,-1.22844 z"
           id="path7657" /><ellipse
           style="fill:url(#radialGradient1192);fill-opacity:1;stroke-width:0.264583"
           id="path7790"
           cx="77.594139"
           cy="172.05603"
           rx="2.9212356"
           ry="2.4275057" /><circle
           style="fill:none;fill-opacity:1;stroke:#2a3540;stroke-width:1.258;stroke-dasharray:none;stroke-opacity:1"
           id="path7792"
           cx="80.235916"
           cy="174.27516"
           r="14.25401" /><ellipse
           style="fill:#ebeff4;fill-opacity:0.419492;stroke:#5d6d7e;stroke-width:1.05071;stroke-dasharray:none;stroke-opacity:1"
           id="path7846"
           cx="80.13839"
           cy="174.21132"
           rx="13.287145"
           ry="13.287146" /><path
           style="fill:#2a3540;fill-opacity:1;stroke:#2a3540;stroke-width:0.078102;stroke-dasharray:none;stroke-opacity:0.79"
           d="m 91.906588,190.62319 4.62123,-4.62129 -0.345852,-0.34584 c -0.207031,-0.20883 -0.492443,-0.33607 -0.808233,-0.33607 -0.317574,0 -0.602758,0.12708 -0.809626,0.33334 l -3.004378,3.00722 c -0.206658,0.20408 -0.33514,0.49106 -0.33514,0.80762 0,0.31478 0.128482,0.60378 0.33514,0.80824 z"
           id="path9821" /></g></g><g
       id="g9835"
       transform="matrix(0.26458333,0,0,0.26458333,9.1980257,160.64214)">
	
	<path
   style="fill:#ffffff"
   d="m 105.942,105.009 c -0.722,-1.103 -1.677,-2.117 -2.734,-2.995 -5.911,-4.823 -14.566,-3.881 -19.348,2.002 -14.052,17.257 -23.721,37.965 -27.983,59.996 -5.048,26.161 -2.412,52.941 7.621,77.501 2.926,7.073 10.964,10.391 17.984,7.501 7.05,-2.862 10.396,-10.877 7.511,-17.951 -7.997,-19.569 -10.074,-40.96 -6.013,-61.834 3.331,-17.585 11.052,-34.112 22.269,-47.864 3.89,-4.785 4,-11.518 0.693,-16.356 z"
   id="path9833" />
</g><g
       id="g9837"
       transform="matrix(0.26458333,0,0,0.26458333,-41.072807,81.002557)">
</g><g
       id="g9839"
       transform="matrix(0.26458333,0,0,0.26458333,-41.072807,81.002557)">
</g><g
       id="g9841"
       transform="matrix(0.26458333,0,0,0.26458333,-41.072807,81.002557)">
</g><g
       id="g9843"
       transform="matrix(0.26458333,0,0,0.26458333,-41.072807,81.002557)">
</g><g
       id="g9845"
       transform="matrix(0.26458333,0,0,0.26458333,-41.072807,81.002557)">
</g><g
       id="g9847"
       transform="matrix(0.26458333,0,0,0.26458333,-41.072807,81.002557)">
</g><g
       id="g9849"
       transform="matrix(0.26458333,0,0,0.26458333,-41.072807,81.002557)">
</g><g
       id="g9851"
       transform="matrix(0.26458333,0,0,0.26458333,-41.072807,81.002557)">
</g><g
       id="g9853"
       transform="matrix(0.26458333,0,0,0.26458333,-41.072807,81.002557)">
</g><g
       id="g9855"
       transform="matrix(0.26458333,0,0,0.26458333,-41.072807,81.002557)">
</g><g
       id="g9857"
       transform="matrix(0.26458333,0,0,0.26458333,-41.072807,81.002557)">
</g><g
       id="g9859"
       transform="matrix(0.26458333,0,0,0.26458333,-41.072807,81.002557)">
</g><g
       id="g9861"
       transform="matrix(0.26458333,0,0,0.26458333,-41.072807,81.002557)">
</g><g
       id="g9863"
       transform="matrix(0.26458333,0,0,0.26458333,-41.072807,81.002557)">
</g><g
       id="g9865"
       transform="matrix(0.26458333,0,0,0.26458333,-41.072807,81.002557)">
</g></g></svg>
