<?xml version="1.0"?>
<svg width="16" height="16" xmlns="http://www.w3.org/2000/svg" xmlns:svg="http://www.w3.org/2000/svg">
 <defs>
  <style>.canvas{fill: none; opacity: 0;}.light-defaultgrey-10{fill: #212121; opacity: 0.1;}.light-defaultgrey{fill: #212121; opacity: 1;}.light-purple{fill: #7f00ff; opacity: 1;}.light-blue{fill: #005dba; opacity: 1;}</style>
 </defs>
 <title>IconInstallDotnet</title>
 <g class="layer">
  <title>Layer 1</title>
  <g class="canvas" id="canvas">
   <path class="canvas" d="m16,16l-16,0l0,-16l16,0l0,16z"/>
  </g>
  <path class="light-defaultgrey-10" d="m 14.5,4.5 v 7 H 2.5 V 7 H 7 V 4.5 Z"/>
  <path class="light-defaultgrey" d="m15,4.5 v 7 L 14.5,12 H 9 v 1 h 2 v 1 H 6 V 13 H 8 V 12 H 2.5 L 2,11.5 V 7 h 1 v 4 H 14 V 5 H 7 V 4 h 7.5 z"/>
  <rect class="light-purple" height="6.5" width="6.5" x="0" y="0"/>
  <path class="light-blue" d="M 8.9,8.9 H 8.1 L 6.2,7 6.9,6.25 8,7.356 8,0 H 9 V 7.356 L 10.1,6.25 10.8,7 Z"/>
 </g>
</svg>